<?xml version="1.0" standalone="no"?>
<!DOCTYPE svg PUBLIC "-//W3C//DTD SVG 20010904//EN"
 "http://www.w3.org/TR/2001/REC-SVG-20010904/DTD/svg10.dtd">
<svg version="1.0" xmlns="http://www.w3.org/2000/svg"
 width="512.000000pt" height="512.000000pt" viewBox="0 0 512.000000 512.000000"
 preserveAspectRatio="xMidYMid meet">

<g transform="translate(0.000000,512.000000) scale(0.100000,-0.100000)"
fill="#000000" stroke="none">
<path d="M2492 4767 c-174 -834 -183 -868 -277 -1062 -201 -416 -566 -738
-1002 -884 -90 -30 -245 -64 -860 -193 -167 -35 -303 -65 -303 -68 0 -3 138
-34 308 -69 814 -170 861 -182 1052 -272 177 -84 317 -185 471 -338 154 -154
255 -295 338 -471 91 -194 100 -231 273 -1057 35 -167 65 -303 68 -303 3 0 47
204 99 453 52 248 109 511 127 582 53 212 120 363 245 551 90 135 291 339 429
437 115 81 321 185 450 227 52 17 335 81 627 143 293 62 533 114 533 117 0 3
-240 56 -533 117 -294 62 -576 126 -628 144 -130 43 -336 146 -449 226 -53 38
-153 125 -226 198 -148 148 -251 292 -333 465 -91 194 -100 231 -273 1057 -35
167 -65 303 -68 303 -3 0 -33 -136 -68 -303z"/>
</g>
</svg>
