<?xml version="1.0" standalone="no"?>
<!DOCTYPE svg PUBLIC "-//W3C//DTD SVG 20010904//EN"
 "http://www.w3.org/TR/2001/REC-SVG-20010904/DTD/svg10.dtd">
<svg version="1.0" xmlns="http://www.w3.org/2000/svg"
 width="512.000000pt" height="512.000000pt" viewBox="0 0 512.000000 512.000000"
 preserveAspectRatio="xMidYMid meet">

<g transform="translate(0.000000,512.000000) scale(0.100000,-0.100000)"
fill="#000000" stroke="none">
<path d="M1982 4688 c-24 -4 -56 -15 -70 -25 -52 -35 -1340 -1338 -1358 -1373
-27 -55 -23 -137 10 -194 39 -66 93 -99 170 -104 49 -3 71 0 102 16 23 12 234
216 504 486 l465 466 5 -1693 5 -1694 30 -48 c40 -65 97 -95 179 -95 104 1
182 53 206 138 7 25 10 680 10 2000 0 2134 3 2000 -53 2060 -46 49 -129 74
-205 60z"/>
<path d="M2995 4671 c-50 -22 -91 -69 -105 -119 -7 -25 -10 -680 -10 -2000 0
-1749 2 -1967 15 -2000 35 -83 103 -123 207 -123 50 0 77 5 96 18 51 35 1350
1348 1368 1383 10 21 17 57 17 91 0 109 -81 198 -187 207 -105 9 -90 20 -608
-496 l-478 -476 -2 1695 -3 1696 -30 48 c-40 65 -97 95 -179 95 -37 0 -77 -8
-101 -19z"/>
</g>
</svg>
